<?xml version="1.0" standalone="no"?>
<!DOCTYPE svg PUBLIC "-//W3C//DTD SVG 20010904//EN"
 "http://www.w3.org/TR/2001/REC-SVG-20010904/DTD/svg10.dtd">
<svg version="1.0" xmlns="http://www.w3.org/2000/svg"
 width="1674.000000pt" height="1674.000000pt" viewBox="0 0 1674.000000 1674.000000"
 preserveAspectRatio="xMidYMid meet">
<metadata>
Created by potrace 1.14, written by Peter Selinger 2001-2017
</metadata>
<g transform="translate(0.000000,1674.000000) scale(0.100000,-0.100000)"
fill="#000000" stroke="none">
<path d="M2575 16723 c-218 -20 -431 -62 -642 -127 -29 -9 -56 -17 -60 -17 -5
-1 -17 -6 -28 -12 -11 -6 -25 -12 -30 -13 -25 -4 -171 -69 -177 -78 -4 -6 -8
-8 -8 -4 0 3 -28 -7 -62 -24 -35 -17 -65 -30 -68 -30 -3 0 -12 -5 -20 -12 -8
-7 -46 -30 -85 -51 -68 -37 -175 -104 -185 -116 -3 -3 -27 -20 -55 -39 -27
-19 -52 -36 -55 -40 -3 -3 -25 -21 -50 -40 -70 -54 -87 -70 -174 -152 -45 -43
-84 -78 -88 -78 -5 0 -8 -5 -8 -11 0 -5 -13 -22 -29 -37 -30 -28 -85 -91 -136
-156 -16 -21 -38 -48 -49 -60 -10 -11 -56 -77 -101 -146 -92 -138 -182 -305
-243 -450 -45 -107 -128 -349 -135 -397 -3 -18 -7 -35 -10 -40 -3 -4 -8 -24
-11 -43 -3 -19 -10 -60 -16 -90 -6 -30 -13 -71 -16 -90 -2 -19 -6 -42 -9 -50
-2 -8 -8 -55 -12 -105 -10 -116 -11 -11572 0 -11685 11 -126 29 -229 72 -430
18 -80 101 -328 116 -345 5 -5 9 -15 9 -23 0 -51 275 -545 312 -560 4 -2 8 -8
8 -13 0 -24 230 -290 339 -393 25 -22 52 -48 60 -56 9 -8 39 -33 66 -55 27
-22 58 -48 69 -57 11 -10 38 -30 60 -45 23 -15 43 -31 46 -34 9 -10 155 -105
201 -130 24 -13 46 -27 49 -31 6 -8 283 -140 330 -157 19 -7 44 -17 55 -22 23
-10 200 -69 224 -74 9 -3 41 -10 71 -18 87 -22 151 -36 200 -43 24 -3 47 -7
50 -9 3 -1 32 -6 65 -10 33 -4 92 -10 130 -15 83 -10 11656 -7 11700 3 17 4
48 9 70 11 22 3 54 7 70 10 17 3 46 8 65 11 108 19 318 72 400 103 8 3 17 6
20 7 44 15 171 66 215 86 28 13 53 22 57 21 3 -1 12 5 18 13 7 8 18 15 24 15
28 0 374 210 424 257 7 7 16 13 20 13 4 0 21 12 37 28 17 15 53 45 80 67 140
110 310 292 442 470 40 55 77 105 82 111 4 5 14 21 21 35 7 13 16 26 19 29 14
11 102 173 159 291 141 294 227 603 260 939 10 101 9 11562 -1 11670 -4 47 -9
96 -11 110 -2 14 -7 45 -11 70 -3 25 -10 63 -15 85 -5 22 -11 54 -14 70 -4 17
-13 57 -21 90 -9 33 -17 67 -19 76 -7 27 -66 203 -75 224 -5 11 -23 55 -40 97
-31 77 -129 279 -140 288 -3 3 -13 19 -21 35 -21 42 -132 209 -142 213 -4 2
-8 10 -8 17 0 7 -3 15 -7 17 -5 2 -21 21 -37 43 -16 22 -35 47 -43 55 -7 8
-30 35 -50 59 -21 25 -49 57 -63 72 -14 15 -39 42 -56 60 -41 45 -149 145
-203 189 -24 19 -48 40 -55 45 -6 6 -42 34 -81 63 -38 28 -81 61 -95 72 -14
11 -31 20 -37 20 -7 0 -13 5 -13 10 0 6 -7 10 -15 10 -8 0 -15 5 -15 10 0 6
-6 10 -12 10 -7 0 -33 14 -58 31 -44 30 -337 178 -362 183 -7 2 -24 8 -38 13
-177 72 -492 153 -658 168 -34 4 -72 9 -84 13 -23 7 -11577 12 -11653 5z"/>
</g>
</svg>
